<?xml version="1.0" standalone="no"?>
<!DOCTYPE svg PUBLIC "-//W3C//DTD SVG 20010904//EN"
 "http://www.w3.org/TR/2001/REC-SVG-20010904/DTD/svg10.dtd">
<svg version="1.0" xmlns="http://www.w3.org/2000/svg"
 width="640.000000pt" height="640.000000pt" viewBox="0 0 640.000000 640.000000"
 preserveAspectRatio="xMidYMid meet">
<metadata>
Created by potrace 1.14, written by Peter Selinger 2001-2017
</metadata>
<g transform="translate(0.000000,640.000000) scale(0.100000,-0.100000)"
fill="#000000" stroke="none">
<path d="M3120 6047 c-3 -3 -48 -7 -101 -11 -53 -3 -110 -8 -125 -11 -16 -2
-45 -7 -64 -9 -19 -3 -46 -7 -60 -10 -14 -2 -43 -7 -65 -10 -49 -7 -63 -10
-140 -31 -33 -9 -67 -18 -75 -20 -75 -16 -276 -81 -295 -95 -5 -4 -39 -17 -75
-30 -118 -43 -393 -192 -530 -288 -90 -64 -227 -169 -275 -211 -145 -129 -381
-384 -448 -486 -15 -22 -35 -51 -45 -65 -122 -164 -258 -425 -332 -635 -18
-49 -40 -112 -50 -140 -44 -124 -110 -451 -127 -630 -14 -149 -6 -606 11 -634
2 -3 7 -35 11 -71 4 -36 9 -68 11 -71 2 -3 6 -21 9 -40 3 -19 17 -83 31 -144
14 -60 27 -117 29 -125 2 -9 24 -76 50 -150 53 -155 125 -316 198 -445 50 -89
174 -285 187 -295 3 -3 17 -20 30 -39 97 -140 372 -421 519 -531 18 -14 38
-29 44 -35 127 -109 481 -313 662 -382 22 -8 78 -30 125 -48 47 -19 121 -43
165 -55 174 -47 302 -78 350 -86 28 -4 52 -8 55 -9 62 -16 259 -29 430 -30
304 0 413 12 740 85 222 49 553 180 758 301 46 27 86 49 89 49 7 0 193 129
263 183 179 139 376 331 499 487 28 36 58 74 67 85 23 29 179 266 195 296 201
377 281 624 354 1089 17 106 23 468 11 625 -7 89 -37 283 -56 360 -55 225
-134 465 -186 565 -12 25 -41 83 -63 130 -22 47 -63 121 -91 165 -27 44 -54
90 -60 103 -5 12 -14 22 -19 22 -5 0 -15 14 -22 32 -7 18 -25 46 -39 62 -15
17 -51 63 -80 101 -68 90 -101 126 -231 255 -113 112 -208 197 -273 244 -22
16 -45 33 -51 38 -24 21 -193 137 -225 155 -19 10 -53 30 -75 44 -58 38 -273
145 -320 159 -22 7 -44 16 -50 20 -32 24 -171 69 -395 129 -108 29 -282 59
-430 76 -62 7 -415 17 -420 12z"/>
</g>
</svg>
